<svg version="1.1" xmlns="http://www.w3.org/2000/svg" xmlns:xlink="http://www.w3.org/1999/xlink" width="1996.5" height="1086"><defs/><g><g transform="translate(-451.5,-10) scale(1,1)"><rect fill="#C0C0C0" stroke="none" x="1207" y="991" width="202" height="102" opacity="0.2"/></g><g transform="translate(-451.5,-10) scale(1,1)"><rect fill="#ffffff" stroke="none" x="1200" y="984" width="202" height="102"/></g><g transform="translate(-451.5,-10) scale(1,1)"><path fill="none" stroke="#000000" d="M 1200 984 L 1402 984 L 1402 1086 L 1200 1086 L 1200 984 Z Z" stroke-miterlimit="10"/></g><g transform="translate(-451.5,-10) scale(1,1)"><path fill="none" stroke="#000000" d="M 1200 1024 L 1402 1024" stroke-miterlimit="10"/></g><g transform="translate(-451.5,-10) scale(1,1)"><path fill="none" stroke="#000000" d="M 1200 1034 L 1402 1034" stroke-miterlimit="10"/></g><g transform="translate(-451.5,-10) scale(1,1)"><g><path fill="none" stroke="none"/><text fill="#000000" stroke="none" font-family="Arial" font-size="13px" font-style="normal" font-weight="bold" text-decoration="none" x="1264" y="1003.5">DeluWeather</text></g></g><g transform="translate(-451.5,-10) scale(1,1)"><g><path fill="none" stroke="none"/><text fill="#000000" stroke="none" font-family="Arial" font-size="13px" font-style="normal" font-weight="normal" text-decoration="none" x="1247.5" y="1018.5">(from deluweather)</text></g></g><g transform="translate(-451.5,-10) scale(1,1)"><g><path fill="none" stroke="none"/><text fill="#000000" stroke="none" font-family="Arial" font-size="13px" font-style="normal" font-weight="normal" text-decoration="none" x="1205" y="1051.5">+main(args: String[*]): void</text><path fill="none" stroke="#000000" d="M 1205 1051.5 L 1361 1051.5" stroke-miterlimit="10"/></g></g><g transform="translate(-451.5,-10) scale(1,1)"><g><path fill="none" stroke="none"/><text fill="#000000" stroke="none" font-family="Arial" font-size="13px" font-style="normal" font-weight="normal" text-decoration="none" x="1205" y="1066.5">+start(primaryStage: Stage): void</text></g></g><g transform="translate(-451.5,-10) scale(1,1)"><g><path fill="none" stroke="none"/><text fill="#000000" stroke="none" font-family="Arial" font-size="13px" font-style="normal" font-weight="normal" text-decoration="none" x="1205" y="1081.5">-noGraphic(): void</text><path fill="none" stroke="#000000" d="M 1205 1081.5 L 1308 1081.5" stroke-miterlimit="10"/></g></g><g transform="translate(-451.5,-10) scale(1,1)"><rect fill="#C0C0C0" stroke="none" x="1171.75" y="664" width="273" height="235" opacity="0.2"/></g><g transform="translate(-451.5,-10) scale(1,1)"><rect fill="#ffffff" stroke="none" x="1164.75" y="657" width="273" height="235"/></g><g transform="translate(-451.5,-10) scale(1,1)"><path fill="none" stroke="#000000" d="M 1164.75 657 L 1437.75 657 L 1437.75 892 L 1164.75 892 L 1164.75 657 Z Z" stroke-miterlimit="10"/></g><g transform="translate(-451.5,-10) scale(1,1)"><path fill="none" stroke="#000000" d="M 1164.75 697 L 1437.75 697" stroke-miterlimit="10"/></g><g transform="translate(-451.5,-10) scale(1,1)"><path fill="none" stroke="#000000" d="M 1164.75 840 L 1437.75 840" stroke-miterlimit="10"/></g><g transform="translate(-451.5,-10) scale(1,1)"><g><path fill="none" stroke="none"/><text fill="#000000" stroke="none" font-family="Arial" font-size="13px" font-style="normal" font-weight="bold" text-decoration="none" x="1238.25" y="676.5">WeatherGUIController</text></g></g><g transform="translate(-451.5,-10) scale(1,1)"><g><path fill="none" stroke="none"/><text fill="#000000" stroke="none" font-family="Arial" font-size="13px" font-style="normal" font-weight="normal" text-decoration="none" x="1247.75" y="691.5">(from deluweather)</text></g></g><g transform="translate(-451.5,-10) scale(1,1)"><g><path fill="none" stroke="none"/><text fill="#000000" stroke="none" font-family="Arial" font-size="13px" font-style="normal" font-weight="normal" text-decoration="none" x="1169.75" y="714.5">-textTemperature: Text</text></g></g><g transform="translate(-451.5,-10) scale(1,1)"><g><path fill="none" stroke="none"/><text fill="#000000" stroke="none" font-family="Arial" font-size="13px" font-style="normal" font-weight="normal" text-decoration="none" x="1169.75" y="729.5">-textDescription: Text</text></g></g><g transform="translate(-451.5,-10) scale(1,1)"><g><path fill="none" stroke="none"/><text fill="#000000" stroke="none" font-family="Arial" font-size="13px" font-style="normal" font-weight="normal" text-decoration="none" x="1169.75" y="744.5">-textHumidity: Text</text></g></g><g transform="translate(-451.5,-10) scale(1,1)"><g><path fill="none" stroke="none"/><text fill="#000000" stroke="none" font-family="Arial" font-size="13px" font-style="normal" font-weight="normal" text-decoration="none" x="1169.75" y="759.5">-textPressure: Text</text></g></g><g transform="translate(-451.5,-10) scale(1,1)"><g><path fill="none" stroke="none"/><text fill="#000000" stroke="none" font-family="Arial" font-size="13px" font-style="normal" font-weight="normal" text-decoration="none" x="1169.75" y="774.5">-textWind: Text</text></g></g><g transform="translate(-451.5,-10) scale(1,1)"><g><path fill="none" stroke="none"/><text fill="#000000" stroke="none" font-family="Arial" font-size="13px" font-style="normal" font-weight="normal" text-decoration="none" x="1169.75" y="789.5">-textPlace: Text</text></g></g><g transform="translate(-451.5,-10) scale(1,1)"><g><path fill="none" stroke="none"/><text fill="#000000" stroke="none" font-family="Arial" font-size="13px" font-style="normal" font-weight="normal" text-decoration="none" x="1169.75" y="804.5">-textInput: TextField</text></g></g><g transform="translate(-451.5,-10) scale(1,1)"><g><path fill="none" stroke="none"/><text fill="#000000" stroke="none" font-family="Arial" font-size="13px" font-style="normal" font-weight="normal" text-decoration="none" x="1169.75" y="819.5">-mainPanel: SplitPane</text></g></g><g transform="translate(-451.5,-10) scale(1,1)"><g><path fill="none" stroke="none"/><text fill="#000000" stroke="none" font-family="Arial" font-size="13px" font-style="normal" font-weight="normal" text-decoration="none" x="1169.75" y="834.5">-dividerPosition: float {readOnly}</text><path fill="none" stroke="#000000" d="M 1169.75 834.5 L 1355.75 834.5" stroke-miterlimit="10"/></g></g><g transform="translate(-451.5,-10) scale(1,1)"><g><path fill="none" stroke="none"/><text fill="#000000" stroke="none" font-family="Arial" font-size="13px" font-style="normal" font-weight="normal" text-decoration="none" x="1169.75" y="857.5">+initialize(url: URL, rb: ResourceBundle): void</text></g></g><g transform="translate(-451.5,-10) scale(1,1)"><g><path fill="none" stroke="none"/><text fill="#000000" stroke="none" font-family="Arial" font-size="13px" font-style="normal" font-weight="normal" text-decoration="none" x="1169.75" y="872.5">+go(): void</text></g></g><g transform="translate(-451.5,-10) scale(1,1)"><g><path fill="none" stroke="none"/><text fill="#000000" stroke="none" font-family="Arial" font-size="13px" font-style="normal" font-weight="normal" text-decoration="none" x="1169.75" y="887.5">-printWeather(): void</text></g></g><g transform="translate(-451.5,-10) scale(1,1)"><rect fill="#C0C0C0" stroke="none" x="1191" y="335" width="225" height="235" opacity="0.2"/></g><g transform="translate(-451.5,-10) scale(1,1)"><rect fill="#ffffff" stroke="none" x="1184" y="328" width="225" height="235"/></g><g transform="translate(-451.5,-10) scale(1,1)"><path fill="none" stroke="#000000" d="M 1184 328 L 1409 328 L 1409 563 L 1184 563 L 1184 328 Z Z" stroke-miterlimit="10"/></g><g transform="translate(-451.5,-10) scale(1,1)"><path fill="none" stroke="#000000" d="M 1184 368 L 1409 368" stroke-miterlimit="10"/></g><g transform="translate(-451.5,-10) scale(1,1)"><path fill="none" stroke="#000000" d="M 1184 481 L 1409 481" stroke-miterlimit="10"/></g><g transform="translate(-451.5,-10) scale(1,1)"><g><path fill="none" stroke="none"/><text fill="#000000" stroke="none" font-family="Arial" font-size="13px" font-style="normal" font-weight="bold" text-decoration="none" x="1264" y="347.5">Connection</text></g></g><g transform="translate(-451.5,-10) scale(1,1)"><g><path fill="none" stroke="none"/><text fill="#000000" stroke="none" font-family="Arial" font-size="13px" font-style="normal" font-weight="normal" text-decoration="none" x="1265.5" y="362.5">(from Http)</text></g></g><g transform="translate(-451.5,-10) scale(1,1)"><g><path fill="none" stroke="none"/><text fill="#000000" stroke="none" font-family="Arial" font-size="13px" font-style="normal" font-weight="normal" text-decoration="none" x="1189" y="385.5">-url: String {readOnly}</text></g></g><g transform="translate(-451.5,-10) scale(1,1)"><g><path fill="none" stroke="none"/><text fill="#000000" stroke="none" font-family="Arial" font-size="13px" font-style="normal" font-weight="normal" text-decoration="none" x="1189" y="400.5">-output: InputStream</text></g></g><g transform="translate(-451.5,-10) scale(1,1)"><g><path fill="none" stroke="none"/><text fill="#000000" stroke="none" font-family="Arial" font-size="13px" font-style="normal" font-weight="normal" text-decoration="none" x="1189" y="415.5">-proxyAddress: String</text></g></g><g transform="translate(-451.5,-10) scale(1,1)"><g><path fill="none" stroke="none"/><text fill="#000000" stroke="none" font-family="Arial" font-size="13px" font-style="normal" font-weight="normal" text-decoration="none" x="1189" y="430.5">-proxyPort: String</text></g></g><g transform="translate(-451.5,-10) scale(1,1)"><g><path fill="none" stroke="none"/><text fill="#000000" stroke="none" font-family="Arial" font-size="13px" font-style="normal" font-weight="normal" text-decoration="none" x="1189" y="445.5">-authUser: String</text></g></g><g transform="translate(-451.5,-10) scale(1,1)"><g><path fill="none" stroke="none"/><text fill="#000000" stroke="none" font-family="Arial" font-size="13px" font-style="normal" font-weight="normal" text-decoration="none" x="1189" y="460.5">-authPassword: String</text></g></g><g transform="translate(-451.5,-10) scale(1,1)"><g><path fill="none" stroke="none"/><text fill="#000000" stroke="none" font-family="Arial" font-size="13px" font-style="normal" font-weight="normal" text-decoration="none" x="1189" y="475.5">-proxyOn: Boolean</text></g></g><g transform="translate(-451.5,-10) scale(1,1)"><g><path fill="none" stroke="none"/><text fill="#000000" stroke="none" font-family="Arial" font-size="13px" font-style="normal" font-weight="normal" text-decoration="none" x="1189" y="498.5">«constructor»+Connection(url: String)</text></g></g><g transform="translate(-451.5,-10) scale(1,1)"><g><path fill="none" stroke="none"/><text fill="#000000" stroke="none" font-family="Arial" font-size="13px" font-style="normal" font-weight="normal" text-decoration="none" x="1189" y="513.5">-connect(): void</text></g></g><g transform="translate(-451.5,-10) scale(1,1)"><g><path fill="none" stroke="none"/><text fill="#000000" stroke="none" font-family="Arial" font-size="13px" font-style="normal" font-weight="normal" text-decoration="none" x="1189" y="528.5">+getConnection(): InputStream</text></g></g><g transform="translate(-451.5,-10) scale(1,1)"><g><path fill="none" stroke="none"/><text fill="#000000" stroke="none" font-family="Arial" font-size="13px" font-style="normal" font-weight="normal" text-decoration="none" x="1189" y="543.5">-setProxy(): void</text></g></g><g transform="translate(-451.5,-10) scale(1,1)"><g><path fill="none" stroke="none"/><text fill="#000000" stroke="none" font-family="Arial" font-size="13px" font-style="normal" font-weight="normal" text-decoration="none" x="1189" y="558.5">-readSettings(): void</text></g></g><g transform="translate(-451.5,-10) scale(1,1)"><rect fill="#C0C0C0" stroke="none" x="516" y="102" width="505" height="175" opacity="0.2"/></g><g transform="translate(-451.5,-10) scale(1,1)"><rect fill="#ffffff" stroke="none" x="509" y="95" width="505" height="175"/></g><g transform="translate(-451.5,-10) scale(1,1)"><path fill="none" stroke="#000000" d="M 509 95 L 1014 95 L 1014 270 L 509 270 L 509 95 Z Z" stroke-miterlimit="10"/></g><g transform="translate(-451.5,-10) scale(1,1)"><path fill="none" stroke="#000000" d="M 509 135 L 1014 135" stroke-miterlimit="10"/></g><g transform="translate(-451.5,-10) scale(1,1)"><path fill="none" stroke="#000000" d="M 509 188 L 1014 188" stroke-miterlimit="10"/></g><g transform="translate(-451.5,-10) scale(1,1)"><g><path fill="none" stroke="none"/><text fill="#000000" stroke="none" font-family="Arial" font-size="13px" font-style="normal" font-weight="bold" text-decoration="none" x="730.5" y="114.5">Coordinate</text></g></g><g transform="translate(-451.5,-10) scale(1,1)"><g><path fill="none" stroke="none"/><text fill="#000000" stroke="none" font-family="Arial" font-size="13px" font-style="normal" font-weight="normal" text-decoration="none" x="726.5" y="129.5">(from Maps)</text></g></g><g transform="translate(-451.5,-10) scale(1,1)"><g><path fill="none" stroke="none"/><text fill="#000000" stroke="none" font-family="Arial" font-size="13px" font-style="normal" font-weight="normal" text-decoration="none" x="514" y="152.5">-longitude: Double {readOnly}</text></g></g><g transform="translate(-451.5,-10) scale(1,1)"><g><path fill="none" stroke="none"/><text fill="#000000" stroke="none" font-family="Arial" font-size="13px" font-style="normal" font-weight="normal" text-decoration="none" x="514" y="167.5">-latitude: Double {readOnly}</text></g></g><g transform="translate(-451.5,-10) scale(1,1)"><g><path fill="none" stroke="none"/><text fill="#000000" stroke="none" font-family="Arial" font-size="13px" font-style="normal" font-weight="normal" text-decoration="none" x="514" y="182.5">-formattedAddress: String {readOnly}</text></g></g><g transform="translate(-451.5,-10) scale(1,1)"><g><path fill="none" stroke="none"/><text fill="#000000" stroke="none" font-family="Arial" font-size="13px" font-style="normal" font-weight="normal" text-decoration="none" x="514" y="205.5">«constructor»+Coordinate(latitude: String, longitude: String, formattedAddress: String)</text></g></g><g transform="translate(-451.5,-10) scale(1,1)"><g><path fill="none" stroke="none"/><text fill="#000000" stroke="none" font-family="Arial" font-size="13px" font-style="normal" font-weight="normal" text-decoration="none" x="514" y="220.5">+getLongitude(): Double</text></g></g><g transform="translate(-451.5,-10) scale(1,1)"><g><path fill="none" stroke="none"/><text fill="#000000" stroke="none" font-family="Arial" font-size="13px" font-style="normal" font-weight="normal" text-decoration="none" x="514" y="235.5">+getLatitude(): Double</text></g></g><g transform="translate(-451.5,-10) scale(1,1)"><g><path fill="none" stroke="none"/><text fill="#000000" stroke="none" font-family="Arial" font-size="13px" font-style="normal" font-weight="normal" text-decoration="none" x="514" y="250.5">+getFormattedAddress(): String</text></g></g><g transform="translate(-451.5,-10) scale(1,1)"><g><path fill="none" stroke="none"/><text fill="#000000" stroke="none" font-family="Arial" font-size="13px" font-style="normal" font-weight="normal" text-decoration="none" x="514" y="265.5">+toString(): String</text></g></g><g transform="translate(-451.5,-10) scale(1,1)"><rect fill="#C0C0C0" stroke="none" x="1079" y="79" width="306" height="115" opacity="0.2"/></g><g transform="translate(-451.5,-10) scale(1,1)"><rect fill="#ffffff" stroke="none" x="1072" y="72" width="306" height="115"/></g><g transform="translate(-451.5,-10) scale(1,1)"><path fill="none" stroke="#000000" d="M 1072 72 L 1378 72 L 1378 187 L 1072 187 L 1072 72 Z Z" stroke-miterlimit="10"/></g><g transform="translate(-451.5,-10) scale(1,1)"><path fill="none" stroke="#000000" d="M 1072 112 L 1378 112" stroke-miterlimit="10"/></g><g transform="translate(-451.5,-10) scale(1,1)"><path fill="none" stroke="#000000" d="M 1072 135 L 1378 135" stroke-miterlimit="10"/></g><g transform="translate(-451.5,-10) scale(1,1)"><g><path fill="none" stroke="none"/><text fill="#000000" stroke="none" font-family="Arial" font-size="13px" font-style="normal" font-weight="bold" text-decoration="none" x="1168" y="91.5">NotFoundException</text></g></g><g transform="translate(-451.5,-10) scale(1,1)"><g><path fill="none" stroke="none"/><text fill="#000000" stroke="none" font-family="Arial" font-size="13px" font-style="normal" font-weight="normal" text-decoration="none" x="1190" y="106.5">(from Maps)</text></g></g><g transform="translate(-451.5,-10) scale(1,1)"><g><path fill="none" stroke="none"/><text fill="#000000" stroke="none" font-family="Arial" font-size="13px" font-style="normal" font-weight="normal" text-decoration="none" x="1077" y="129.5">-address: String {readOnly}</text></g></g><g transform="translate(-451.5,-10) scale(1,1)"><g><path fill="none" stroke="none"/><text fill="#000000" stroke="none" font-family="Arial" font-size="13px" font-style="normal" font-weight="normal" text-decoration="none" x="1077" y="152.5">«constructor»+NotFoundException(address: String)</text></g></g><g transform="translate(-451.5,-10) scale(1,1)"><g><path fill="none" stroke="none"/><text fill="#000000" stroke="none" font-family="Arial" font-size="13px" font-style="normal" font-weight="normal" text-decoration="none" x="1077" y="167.5">+toString(): String</text></g></g><g transform="translate(-451.5,-10) scale(1,1)"><g><path fill="none" stroke="none"/><text fill="#000000" stroke="none" font-family="Arial" font-size="13px" font-style="normal" font-weight="normal" text-decoration="none" x="1077" y="182.5">+getAddress(): String</text></g></g><g transform="translate(-451.5,-10) scale(1,1)"><rect fill="#C0C0C0" stroke="none" x="468.5" y="383" width="600" height="250" opacity="0.2"/></g><g transform="translate(-451.5,-10) scale(1,1)"><rect fill="#ffffff" stroke="none" x="461.5" y="376" width="600" height="250"/></g><g transform="translate(-451.5,-10) scale(1,1)"><path fill="none" stroke="#000000" d="M 461.5 376 L 1061.5 376 L 1061.5 626 L 461.5 626 L 461.5 376 Z Z" stroke-miterlimit="10"/></g><g transform="translate(-451.5,-10) scale(1,1)"><path fill="none" stroke="#000000" d="M 461.5 416 L 1061.5 416" stroke-miterlimit="10"/></g><g transform="translate(-451.5,-10) scale(1,1)"><path fill="none" stroke="#000000" d="M 461.5 544 L 1061.5 544" stroke-miterlimit="10"/></g><g transform="translate(-451.5,-10) scale(1,1)"><g><path fill="none" stroke="none"/><text fill="#000000" stroke="none" font-family="Arial" font-size="13px" font-style="normal" font-weight="bold" text-decoration="none" x="741" y="395.5">Reader</text></g></g><g transform="translate(-451.5,-10) scale(1,1)"><g><path fill="none" stroke="none"/><text fill="#000000" stroke="none" font-family="Arial" font-size="13px" font-style="normal" font-weight="normal" text-decoration="none" x="726.5" y="410.5">(from Maps)</text></g></g><g transform="translate(-451.5,-10) scale(1,1)"><g><path fill="none" stroke="none"/><text fill="#000000" stroke="none" font-family="Arial" font-size="13px" font-style="normal" font-weight="normal" text-decoration="none" x="466.5" y="433.5">-QUERY_STATUS: String = "/GeocodeResponse/status/text()" {readOnly}</text><path fill="none" stroke="#000000" d="M 466.5 433.5 L 895.5 433.5" stroke-miterlimit="10"/></g></g><g transform="translate(-451.5,-10) scale(1,1)"><g><path fill="none" stroke="none"/><text fill="#000000" stroke="none" font-family="Arial" font-size="13px" font-style="normal" font-weight="normal" text-decoration="none" x="466.5" y="448.5">-QUERY_STATUS_FAIL: String = "ZERO_RESULTS" {readOnly}</text><path fill="none" stroke="#000000" d="M 466.5 448.5 L 845.5 448.5" stroke-miterlimit="10"/></g></g><g transform="translate(-451.5,-10) scale(1,1)"><g><path fill="none" stroke="none"/><text fill="#000000" stroke="none" font-family="Arial" font-size="13px" font-style="normal" font-weight="normal" text-decoration="none" x="466.5" y="463.5">-QUERY_LATITUDE: String = "/GeocodeResponse/result/geometry/location/lat/text()" {readOnly}</text><path fill="none" stroke="#000000" d="M 466.5 463.5 L 1027.5 463.5" stroke-miterlimit="10"/></g></g><g transform="translate(-451.5,-10) scale(1,1)"><g><path fill="none" stroke="none"/><text fill="#000000" stroke="none" font-family="Arial" font-size="13px" font-style="normal" font-weight="normal" text-decoration="none" x="466.5" y="478.5">-QUERY_LONGITUDE: String = "/GeocodeResponse/result/geometry/location/lng/text()" {readOnly}</text><path fill="none" stroke="#000000" d="M 466.5 478.5 L 1042.5 478.5" stroke-miterlimit="10"/></g></g><g transform="translate(-451.5,-10) scale(1,1)"><g><path fill="none" stroke="none"/><text fill="#000000" stroke="none" font-family="Arial" font-size="13px" font-style="normal" font-weight="normal" text-decoration="none" x="466.5" y="493.5">-GEOCODE_URL: String = "http://maps.googleapis.com/maps/api/geocode/xml?address=" {readOnly}</text><path fill="none" stroke="#000000" d="M 466.5 493.5 L 1057.5 493.5" stroke-miterlimit="10"/></g></g><g transform="translate(-451.5,-10) scale(1,1)"><g><path fill="none" stroke="none"/><text fill="#000000" stroke="none" font-family="Arial" font-size="13px" font-style="normal" font-weight="normal" text-decoration="none" x="466.5" y="508.5">-QUERY_ADDRESS: String = "/GeocodeResponse/result/formatted_address/text()" {readOnly}</text><path fill="none" stroke="#000000" d="M 466.5 508.5 L 1014.5 508.5" stroke-miterlimit="10"/></g></g><g transform="translate(-451.5,-10) scale(1,1)"><g><path fill="none" stroke="none"/><text fill="#000000" stroke="none" font-family="Arial" font-size="13px" font-style="normal" font-weight="normal" text-decoration="none" x="466.5" y="523.5">-address: String {readOnly}</text></g></g><g transform="translate(-451.5,-10) scale(1,1)"><g><path fill="none" stroke="none"/><text fill="#000000" stroke="none" font-family="Arial" font-size="13px" font-style="normal" font-weight="normal" text-decoration="none" x="466.5" y="538.5">-GMaps: Connection</text></g></g><g transform="translate(-451.5,-10) scale(1,1)"><g><path fill="none" stroke="none"/><text fill="#000000" stroke="none" font-family="Arial" font-size="13px" font-style="normal" font-weight="normal" text-decoration="none" x="466.5" y="561.5">«constructor»+Reader(address: String)</text></g></g><g transform="translate(-451.5,-10) scale(1,1)"><g><path fill="none" stroke="none"/><text fill="#000000" stroke="none" font-family="Arial" font-size="13px" font-style="normal" font-weight="normal" text-decoration="none" x="466.5" y="576.5">-getValidUrl(): String</text></g></g><g transform="translate(-451.5,-10) scale(1,1)"><g><path fill="none" stroke="none"/><text fill="#000000" stroke="none" font-family="Arial" font-size="13px" font-style="normal" font-weight="normal" text-decoration="none" x="466.5" y="591.5">-interpreter(): void</text></g></g><g transform="translate(-451.5,-10) scale(1,1)"><g><path fill="none" stroke="none"/><text fill="#000000" stroke="none" font-family="Arial" font-size="13px" font-style="normal" font-weight="normal" text-decoration="none" x="466.5" y="606.5">-printCoordinate(): void</text></g></g><g transform="translate(-451.5,-10) scale(1,1)"><g><path fill="none" stroke="none"/><text fill="#000000" stroke="none" font-family="Arial" font-size="13px" font-style="normal" font-weight="normal" text-decoration="none" x="466.5" y="621.5">+getCoordinate(): Coordinate</text></g></g><g transform="translate(-451.5,-10) scale(1,1)"><path fill="none" stroke="#000000" d="M 1164 740 Q 762 642 762 627" stroke-miterlimit="10"/></g><g transform="translate(-451.5,-10) scale(1,1)"><path fill="none" stroke="#000000" d="M 766.209517756016 637.1626748576241 L 762 627 L 757.790482243984 637.1626748576241" stroke-miterlimit="10"/></g><g transform="translate(-451.5,-10) scale(1,1)"><g><path fill="none" stroke="none"/><text fill="#000000" stroke="none" font-family="Arial" font-size="13px" font-style="normal" font-weight="normal" text-decoration="none" x="728" y="659">~GMR</text></g></g><g transform="translate(-451.5,-10) scale(1,1)"><path fill="none" stroke="#000000" d="M 762 375 Q 762 361 761 271" stroke-miterlimit="10"/></g><g transform="translate(-451.5,-10) scale(1,1)"><path fill="none" stroke="#000000" d="M 765.3221695731883 281.1152780575032 L 761 271 L 756.9036537065916 281.2088171226876" stroke-miterlimit="10"/></g><g transform="translate(-451.5,-10) scale(1,1)"><g><path fill="none" stroke="none"/><text fill="#000000" stroke="none" font-family="Arial" font-size="13px" font-style="normal" font-weight="normal" text-decoration="none" x="693" y="304">~CoordinateResult</text></g></g><g transform="translate(-451.5,-10) scale(1,1)"><rect fill="#C0C0C0" stroke="none" x="1537" y="413" width="622" height="190" opacity="0.2"/></g><g transform="translate(-451.5,-10) scale(1,1)"><rect fill="#ffffff" stroke="none" x="1530" y="406" width="622" height="190"/></g><g transform="translate(-451.5,-10) scale(1,1)"><path fill="none" stroke="#000000" d="M 1530 406 L 2152 406 L 2152 596 L 1530 596 L 1530 406 Z Z" stroke-miterlimit="10"/></g><g transform="translate(-451.5,-10) scale(1,1)"><path fill="none" stroke="#000000" d="M 1530 446 L 2152 446" stroke-miterlimit="10"/></g><g transform="translate(-451.5,-10) scale(1,1)"><path fill="none" stroke="#000000" d="M 1530 514 L 2152 514" stroke-miterlimit="10"/></g><g transform="translate(-451.5,-10) scale(1,1)"><g><path fill="none" stroke="none"/><text fill="#000000" stroke="none" font-family="Arial" font-size="13px" font-style="normal" font-weight="bold" text-decoration="none" x="1820.5" y="425.5">Reader</text></g></g><g transform="translate(-451.5,-10) scale(1,1)"><g><path fill="none" stroke="none"/><text fill="#000000" stroke="none" font-family="Arial" font-size="13px" font-style="normal" font-weight="normal" text-decoration="none" x="1798" y="440.5">(from Weather)</text></g></g><g transform="translate(-451.5,-10) scale(1,1)"><g><path fill="none" stroke="none"/><text fill="#000000" stroke="none" font-family="Arial" font-size="13px" font-style="normal" font-weight="normal" text-decoration="none" x="1535" y="463.5">-CoordinatePlace: Coordinate {readOnly}</text></g></g><g transform="translate(-451.5,-10) scale(1,1)"><g><path fill="none" stroke="none"/><text fill="#000000" stroke="none" font-family="Arial" font-size="13px" font-style="normal" font-weight="normal" text-decoration="none" x="1535" y="478.5">-OPENWEATHER_URL: String = "http://api.openweathermap.org/data/2.5/weather?mode=xml" {readOnly}</text><path fill="none" stroke="#000000" d="M 1535 478.5 L 2148 478.5" stroke-miterlimit="10"/></g></g><g transform="translate(-451.5,-10) scale(1,1)"><g><path fill="none" stroke="none"/><text fill="#000000" stroke="none" font-family="Arial" font-size="13px" font-style="normal" font-weight="normal" text-decoration="none" x="1535" y="493.5">-apikey: String = ""</text></g></g><g transform="translate(-451.5,-10) scale(1,1)"><g><path fill="none" stroke="none"/><text fill="#000000" stroke="none" font-family="Arial" font-size="13px" font-style="normal" font-weight="normal" text-decoration="none" x="1535" y="508.5">-OpenWeather: Connection</text></g></g><g transform="translate(-451.5,-10) scale(1,1)"><g><path fill="none" stroke="none"/><text fill="#000000" stroke="none" font-family="Arial" font-size="13px" font-style="normal" font-weight="normal" text-decoration="none" x="1535" y="531.5">«constructor»+Reader(CoordinatePlace: Coordinate)</text></g></g><g transform="translate(-451.5,-10) scale(1,1)"><g><path fill="none" stroke="none"/><text fill="#000000" stroke="none" font-family="Arial" font-size="13px" font-style="normal" font-weight="normal" text-decoration="none" x="1535" y="546.5">-getValidUrl(): String</text></g></g><g transform="translate(-451.5,-10) scale(1,1)"><g><path fill="none" stroke="none"/><text fill="#000000" stroke="none" font-family="Arial" font-size="13px" font-style="normal" font-weight="normal" text-decoration="none" x="1535" y="561.5">-interpreter(): void</text></g></g><g transform="translate(-451.5,-10) scale(1,1)"><g><path fill="none" stroke="none"/><text fill="#000000" stroke="none" font-family="Arial" font-size="13px" font-style="normal" font-weight="normal" text-decoration="none" x="1535" y="576.5">-readSettings(): void</text></g></g><g transform="translate(-451.5,-10) scale(1,1)"><g><path fill="none" stroke="none"/><text fill="#000000" stroke="none" font-family="Arial" font-size="13px" font-style="normal" font-weight="normal" text-decoration="none" x="1535" y="591.5">+getState(): State</text></g></g><g transform="translate(-451.5,-10) scale(1,1)"><path fill="none" stroke="#000000" d="M 1439 740 Q 1842 642 1842 597" stroke-miterlimit="10"/></g><g transform="translate(-451.5,-10) scale(1,1)"><path fill="none" stroke="#000000" d="M 1846.2095177560159 607.1626748576241 L 1842 597 L 1837.7904822439841 607.1626748576241" stroke-miterlimit="10"/></g><g transform="translate(-451.5,-10) scale(1,1)"><g><path fill="none" stroke="none"/><text fill="#000000" stroke="none" font-family="Arial" font-size="13px" font-style="normal" font-weight="normal" text-decoration="none" x="1808" y="629">~OPW</text></g></g><g transform="translate(-451.5,-10) scale(1,1)"><rect fill="#C0C0C0" stroke="none" x="1527" y="27" width="918" height="325" opacity="0.2"/></g><g transform="translate(-451.5,-10) scale(1,1)"><rect fill="#ffffff" stroke="none" x="1520" y="20" width="918" height="325"/></g><g transform="translate(-451.5,-10) scale(1,1)"><path fill="none" stroke="#000000" d="M 1520 20 L 2438 20 L 2438 345 L 1520 345 L 1520 20 Z Z" stroke-miterlimit="10"/></g><g transform="translate(-451.5,-10) scale(1,1)"><path fill="none" stroke="#000000" d="M 1520 60 L 2438 60" stroke-miterlimit="10"/></g><g transform="translate(-451.5,-10) scale(1,1)"><path fill="none" stroke="#000000" d="M 1520 188 L 2438 188" stroke-miterlimit="10"/></g><g transform="translate(-451.5,-10) scale(1,1)"><g><path fill="none" stroke="none"/><text fill="#000000" stroke="none" font-family="Arial" font-size="13px" font-style="normal" font-weight="bold" text-decoration="none" x="1963.5" y="39.5">State</text></g></g><g transform="translate(-451.5,-10) scale(1,1)"><g><path fill="none" stroke="none"/><text fill="#000000" stroke="none" font-family="Arial" font-size="13px" font-style="normal" font-weight="normal" text-decoration="none" x="1936" y="54.5">(from Weather)</text></g></g><g transform="translate(-451.5,-10) scale(1,1)"><g><path fill="none" stroke="none"/><text fill="#000000" stroke="none" font-family="Arial" font-size="13px" font-style="normal" font-weight="normal" text-decoration="none" x="1525" y="77.5">+coordinate: Coordinate</text></g></g><g transform="translate(-451.5,-10) scale(1,1)"><g><path fill="none" stroke="none"/><text fill="#000000" stroke="none" font-family="Arial" font-size="13px" font-style="normal" font-weight="normal" text-decoration="none" x="1525" y="92.5">-temperature: Double {readOnly}</text></g></g><g transform="translate(-451.5,-10) scale(1,1)"><g><path fill="none" stroke="none"/><text fill="#000000" stroke="none" font-family="Arial" font-size="13px" font-style="normal" font-weight="normal" text-decoration="none" x="1525" y="107.5">-temperatureMin: Double {readOnly}</text></g></g><g transform="translate(-451.5,-10) scale(1,1)"><g><path fill="none" stroke="none"/><text fill="#000000" stroke="none" font-family="Arial" font-size="13px" font-style="normal" font-weight="normal" text-decoration="none" x="1525" y="122.5">-temperatureMax: Double {readOnly}</text></g></g><g transform="translate(-451.5,-10) scale(1,1)"><g><path fill="none" stroke="none"/><text fill="#000000" stroke="none" font-family="Arial" font-size="13px" font-style="normal" font-weight="normal" text-decoration="none" x="1525" y="137.5">-humidity: String {readOnly}</text></g></g><g transform="translate(-451.5,-10) scale(1,1)"><g><path fill="none" stroke="none"/><text fill="#000000" stroke="none" font-family="Arial" font-size="13px" font-style="normal" font-weight="normal" text-decoration="none" x="1525" y="152.5">-pressure: String {readOnly}</text></g></g><g transform="translate(-451.5,-10) scale(1,1)"><g><path fill="none" stroke="none"/><text fill="#000000" stroke="none" font-family="Arial" font-size="13px" font-style="normal" font-weight="normal" text-decoration="none" x="1525" y="167.5">-wind: String {readOnly}</text></g></g><g transform="translate(-451.5,-10) scale(1,1)"><g><path fill="none" stroke="none"/><text fill="#000000" stroke="none" font-family="Arial" font-size="13px" font-style="normal" font-weight="normal" text-decoration="none" x="1525" y="182.5">-description: String {readOnly}</text></g></g><g transform="translate(-451.5,-10) scale(1,1)"><g><path fill="none" stroke="none"/><text fill="#000000" stroke="none" font-family="Arial" font-size="13px" font-style="normal" font-weight="normal" text-decoration="none" x="1525" y="205.5">«constructor»+State(temperature: String, temperatureMin: String, temperatureMax: String, humidity: String, pressure: String, wind: String, description: String)</text></g></g><g transform="translate(-451.5,-10) scale(1,1)"><g><path fill="none" stroke="none"/><text fill="#000000" stroke="none" font-family="Arial" font-size="13px" font-style="normal" font-weight="normal" text-decoration="none" x="1525" y="220.5">-toCelsius(input: Double): Double</text></g></g><g transform="translate(-451.5,-10) scale(1,1)"><g><path fill="none" stroke="none"/><text fill="#000000" stroke="none" font-family="Arial" font-size="13px" font-style="normal" font-weight="normal" text-decoration="none" x="1525" y="235.5">+toString(): String</text></g></g><g transform="translate(-451.5,-10) scale(1,1)"><g><path fill="none" stroke="none"/><text fill="#000000" stroke="none" font-family="Arial" font-size="13px" font-style="normal" font-weight="normal" text-decoration="none" x="1525" y="250.5">+getTemperature(): String</text></g></g><g transform="translate(-451.5,-10) scale(1,1)"><g><path fill="none" stroke="none"/><text fill="#000000" stroke="none" font-family="Arial" font-size="13px" font-style="normal" font-weight="normal" text-decoration="none" x="1525" y="265.5">+getHumidity(): String</text></g></g><g transform="translate(-451.5,-10) scale(1,1)"><g><path fill="none" stroke="none"/><text fill="#000000" stroke="none" font-family="Arial" font-size="13px" font-style="normal" font-weight="normal" text-decoration="none" x="1525" y="280.5">+getPressure(): String</text></g></g><g transform="translate(-451.5,-10) scale(1,1)"><g><path fill="none" stroke="none"/><text fill="#000000" stroke="none" font-family="Arial" font-size="13px" font-style="normal" font-weight="normal" text-decoration="none" x="1525" y="295.5">+getWind(): String</text></g></g><g transform="translate(-451.5,-10) scale(1,1)"><g><path fill="none" stroke="none"/><text fill="#000000" stroke="none" font-family="Arial" font-size="13px" font-style="normal" font-weight="normal" text-decoration="none" x="1525" y="310.5">+getDescription(): String</text></g></g><g transform="translate(-451.5,-10) scale(1,1)"><g><path fill="none" stroke="none"/><text fill="#000000" stroke="none" font-family="Arial" font-size="13px" font-style="normal" font-weight="normal" text-decoration="none" x="1525" y="325.5">+getCoordinate(): Coordinate</text></g></g><g transform="translate(-451.5,-10) scale(1,1)"><g><path fill="none" stroke="none"/><text fill="#000000" stroke="none" font-family="Arial" font-size="13px" font-style="normal" font-weight="normal" text-decoration="none" x="1525" y="340.5">+setCoordinate(coordinate: Coordinate): void</text></g></g><g transform="translate(-451.5,-10) scale(1,1)"><path fill="none" stroke="#000000" d="M 1842 405 Q 1842 361 1853 346" stroke-miterlimit="10"/></g><g transform="translate(-451.5,-10) scale(1,1)"><path fill="none" stroke="#000000" d="M 1850.3847395125347 356.68458761874797 L 1853 346 L 1843.5955872153456 351.70587593414257" stroke-miterlimit="10"/></g><g transform="translate(-451.5,-10) scale(1,1)"><g><path fill="none" stroke="none"/><text fill="#000000" stroke="none" font-family="Arial" font-size="13px" font-style="normal" font-weight="normal" text-decoration="none" x="1787" y="365">-WeatherNow</text></g></g><g transform="translate(-451.5,-10) scale(1,1)"><path fill="none" stroke="#000000" d="M 1301 893 L 1301 983" stroke-miterlimit="10"/></g><g transform="translate(-451.5,-10) scale(1,1)"><path fill="none" stroke="#000000" d="M 1063 469 L 1183 457" stroke-miterlimit="10"/></g><g transform="translate(-451.5,-10) scale(1,1)"><path fill="none" stroke="#000000" d="M 1173.3066232366605 462.19985066362 L 1183 457 L 1172.4688978926433 453.8225972234496" stroke-miterlimit="10"/></g><g transform="translate(-451.5,-10) scale(1,1)"><path fill="none" stroke="#000000" d="M 1529 469 L 1410 457" stroke-miterlimit="10"/></g><g transform="translate(-451.5,-10) scale(1,1)"><path fill="none" stroke="#000000" d="M 1420.5337418918998 453.83135963624255 L 1410 457 L 1419.6890474113854 462.20791323467694" stroke-miterlimit="10"/></g><g transform="translate(-451.5,-10) scale(1,1)"><path fill="none" stroke="#000000" d="M 918 375 L 1151 188" stroke-miterlimit="10"/></g><g transform="translate(-451.5,-10) scale(1,1)"><path fill="none" stroke="#000000" d="M 1145.709066384433 197.64396295490937 L 1151 188 L 1140.4394333586965 191.0780565645531" stroke-miterlimit="10"/></g></g></svg>